#!OML:ASF F:\VICON\USERDATA\INSTALL\rory3\rory3.ASF
:FULLY-SPECIFIED
:DEGREES
100
root 0.434454 18.3017 20.0441 4.39655 2.91194 -5.86671
lowerback 14.5944 0.397171 4.89129
upperback 0.610674 1.31785 -0.271312
thorax -7.43332 0.465629 -3.33288
lowerneck -5.03849 -0.989814 -0.872079
upperneck -5.62102 -1.22457 1.66859
head -0.873536 -0.604299 0.643788
rclavicle 1.39149e-014 -3.18055e-015
rhumerus -27.0431 22.0181 -87.0879
rradius 101.294
rwrist -2.49655
rhand -37.0597 27.1419
rfingers 7.12502
rthumb -10.1323 -2.59412
lclavicle 1.39149e-014 -3.18055e-015
lhumerus -59.0007 -10.0699 97.064
lradius 114.211
lwrist 36.0068
lhand -35.7443 11.4094
lfingers 7.12502
lthumb -8.86303 41.2033
rfemur 11.6424 -0.748508 32.8455
rtibia 66.4244
rfoot 34.5017 -10.0286
rtoes 21.2284
lfemur -31.1223 -2.35675 -15.9522
ltibia 21.1834
lfoot 11.793 0.557126
ltoes -19.4438
101
root 0.470524 18.1951 20.6627 3.84226 1.39639 -4.92542
lowerback 13.9223 0.827496 3.96742
upperback 0.913483 1.67091 -0.635723
thorax -6.71316 0.686738 -3.24357
lowerneck -5.21973 -0.919301 -0.929193
upperneck -4.98316 -1.13203 1.76437
head -0.64826 -0.555329 0.678536
rclavicle 1.26228e-014 2.06736e-014
rhumerus -28.6301 21.8352 -87.7889
rradius 100.11
rwrist -2.8911
rhand -37.6315 26.8553
rfingers 7.12502
rthumb -10.6838 -2.85306
lclavicle 1.26228e-014 2.06736e-014
lhumerus -57.5025 -10.5229 96.9471
lradius 114.478
lwrist 36.3394
lhand -35.2309 7.39446
lfingers 7.12502
lthumb -8.36766 37.2087
rfemur 10.6657 -0.454305 30.595
rtibia 71.2699
rfoot 33.45 -8.67447
rtoes 19.3899
lfemur -29.1981 -0.415931 -17.7696
ltibia 22.5939
lfoot 10.047 -3.55919
ltoes -16.238
102
root 0.479146 18.0671 21.2197 3.20055 1.64447 -4.3527
lowerback 14.1212 0.636254 3.48547
upperback 1.00317 1.33653 -0.798663
thorax -6.76268 0.535856 -3.0838
lowerneck -5.39815 -0.829108 -0.831252
upperneck -4.32735 -1.02657 1.63849
head -0.421556 -0.501515 0.620671
rclavicle -9.14409e-015 6.36111e-015
rhumerus -30.5551 21.1927 -88.5863
rradius 98.9926
rwrist -2.99922
rhand -38.5517 29.8552
rfingers 7.12502
rthumb -11.5713 0.194685
lclavicle -9.14409e-015 6.36111e-015
lhumerus -56.1257 -11.0262 96.88
lradius 114.902
lwrist 36.5677
lhand -35.9375 5.52224
lfingers 7.12502
lthumb -9.04954 35.3081
rfemur 9.45362 -1.70347 29.002
rtibia 75.9283
rfoot 32.6022 -8.51238
rtoes 19.3402
lfemur -28.1376 0.847476 -19.2487
ltibia 24.8834
lfoot 6.78424 -8.37043
ltoes -12.9539
103
root 0.472994 17.9437 21.7444 2.70953 1.43325 -4.22042
lowerback 14.5795 0.620682 3.10789
upperback 1.00517 1.26975 -0.805265
thorax -7.02905 0.508393 -2.87522
lowerneck -5.31983 -0.753883 -0.84574
upperneck -4.09313 -0.92868 1.65208
head -0.363929 -0.452189 0.627993
rclavicle -2.14687e-014 9.54166e-015
rhumerus -32.2574 20.3794 -89.1446
rradius 97.8053
rwrist -2.68732
rhand -39.0139 31.9317
rfingers 7.12502
rthumb -12.0171 2.2967
lclavicle -2.14687e-014 9.54166e-015
lhumerus -54.2998 -11.755 96.8387
lradius 115.082
lwrist 36.5753
lhand -39.096 11.1138
lfingers 7.12502
lthumb -12.0962 40.7442
rfemur 7.70938 -2.36136 28.0751
rtibia 80.4918
rfoot 32.3173 -9.80455
rtoes 21.0743
lfemur -27.0893 1.4271 -19.5773
ltibia 27.9868
lfoot 2.18443 -9.79339
ltoes -10.7668
104
root 0.470105 17.8012 22.2452 2.33456 1.17819 -4.14292
lowerback 14.8951 0.613844 2.84009
upperback 1.19956 1.2219 -0.822821
thorax -7.00476 0.495825 -2.7368
lowerneck -5.47125 -0.721911 -0.782984
upperneck -4.18155 -0.887291 1.66412
head -0.367184 -0.431988 0.621507
rclavicle -5.26779e-015 7.95139e-015
rhumerus -33.5086 19.4821 -89.4801
rradius 96.7856
rwrist -2.08674
rhand -39.1898 32.2353
rfingers 7.12502
rthumb -12.1867 2.61031
lclavicle -5.26779e-015 7.95139e-015
lhumerus -51.7262 -12.7235 96.587
lradius 115.123
lwrist 36.6426
lhand -41.0727 17.4598
lfingers 7.12502
lthumb -14.0017 46.9682
rfemur 5.64684 -2.97053 27.176
rtibia 85.116
rfoot 31.7102 -11.0229
rtoes 23.0202
lfemur -26.3285 1.5524 -19.7118
ltibia 31.26
lfoot -2.27327 -9.7551
ltoes -10.3475
105
root 0.474448 17.672 22.7413 2.16266 1.47012 -3.82606
lowerback 15.1805 0.409885 2.51537
upperback 1.30906 0.899317 -0.888792
thorax -7.07119 0.347823 -2.56114
lowerneck -5.57348 -0.711423 -0.952622
upperneck -4.49925 -0.855248 1.90244
head -0.446046 -0.414159 0.724271
rclavicle 1.93815e-014 -7.15625e-015
rhumerus -34.8615 18.5758 -89.8367
rradius 95.6995
rwrist -1.32631
rhand -39.5034 32.6732
rfingers 7.12502
rthumb -12.4891 3.0664
lclavicle 1.93815e-014 -7.15625e-015
lhumerus -49.1276 -13.601 96.3607
lradius 115.364
lwrist 36.6475
lhand -40.6485 16.4352
lfingers 7.12502
lthumb -13.5929 45.9714
rfemur 3.34927 -4.19921 25.8729
rtibia 89.5824
rfoot 31.0214 -11.7625
rtoes 19.9491
lfemur -26.2464 1.00497 -20.1296
ltibia 34.6549
lfoot -5.51301 -9.84446
ltoes -6.83677
106
root 0.480523 17.5578 23.2309 1.80621 1.91168 -3.3609
lowerback 15.882 0.123022 2.13418
upperback 1.43349 0.458851 -1.02049
thorax -7.35558 0.140262 -2.40195
lowerneck -5.44214 -0.660014 -1.16925
upperneck -5.14631 -0.759173 2.23684
head -0.665213 -0.366197 0.868665
rclavicle -9.83984e-015 -1.66979e-014
rhumerus -36.1453 17.6223 -90.2357
rradius 94.4389
rwrist -0.432985
rhand -39.7909 33.2021
rfingers 7.12502
rthumb -12.7662 3.61237
lclavicle -9.83984e-015 -1.66979e-014
lhumerus -46.3693 -14.5441 96.1156
lradius 115.599
lwrist 36.4055
lhand -36.7087 11.1674
lfingers 7.12502
lthumb -9.79359 40.9197
rfemur 1.00999 -5.41246 24.4786
rtibia 93.8197
rfoot 30.5486 -12.6437
rtoes 24.7439
lfemur -25.9346 0.347512 -20.8271
ltibia 37.4244
lfoot -7.54311 -9.05903
ltoes -3.60898
107
root 0.478537 17.4446 23.7097 1.38958 2.66384 -2.30364
lowerback 16.5384 -0.204189 1.10054
upperback 1.75239 -0.167816 -1.26294
thorax -7.40813 -0.132702 -1.93834
lowerneck -5.38852 -0.625342 -1.51901
upperneck -6.00566 -0.668438 2.68925
head -0.940019 -0.319922 1.07535
rclavicle 1.07344e-014 -4.77083e-015
rhumerus -37.2721 16.4639 -90.4137
rradius 93.3108
rwrist 0.502055
rhand -40.2718 34.036
rfingers 7.12502
rthumb -13.2298 4.4758
lclavicle 1.07344e-014 -4.77083e-015
lhumerus -42.9953 -15.6067 95.5666
lradius 115.695
lwrist 36.2719
lhand -38.2055 11.548
lfingers 7.12502
lthumb -11.2375 41.227
rfemur -1.534 -6.82643 22.4329
rtibia 98.0231
rfoot 30.1683 -13.4589
rtoes 25.4869
lfemur -24.7233 -0.597642 -22.1608
ltibia 39.6027
lfoot -9.89481 -7.36261
ltoes -5.38066
108
root 0.476649 17.3906 24.2119 1.08463 4.57804 -0.470219
lowerback 16.9823 -0.861349 -0.480777
upperback 2.11946 -1.35034 -1.67862
thorax -7.27926 -0.660946 -1.21355
lowerneck -5.28848 -0.575732 -1.90274
upperneck -6.97515 -0.550463 3.13344
head -1.26313 -0.260449 1.29001
rclavicle -9.54166e-015 1.59028e-015
rhumerus -38.5499 15.1311 -90.4708
rradius 92.4087
rwrist 1.6407
rhand -40.9209 35.606
rfingers 7.12502
rthumb -13.8554 6.08746
lclavicle -9.54166e-015 1.59028e-015
lhumerus -39.5855 -16.543 94.8625
lradius 115.741
lwrist 35.8352
lhand -38.4397 11.9845
lfingers 7.12502
lthumb -11.4634 41.6511
rfemur -3.91134 -9.64769 18.9675
rtibia 101.683
rfoot 30.0335 -12.826
rtoes 28.2254
lfemur -23.004 -2.51885 -24.3607
ltibia 40.8455
lfoot -11.7464 -6.42433
ltoes -6.51012
109
root 0.4609 17.3214 24.6546 0.809527 3.48474 1.82154
lowerback 18.2331 -0.297356 -3.13354
upperback 2.11979 -1.20886 -2.33437
thorax -7.92318 -0.517889 -0.436121
lowerneck -4.85865 -0.572359 -2.18555
upperneck -7.96179 -0.495535 3.62586
head -1.6527 -0.239314 1.50866
rclavicle -1.31198e-014 -2.14687e-014
rhumerus -40.1485 13.7293 -90.6577
rradius 91.4281
rwrist 3.04968
rhand -41.2036 34.8027
rfingers 7.12502
rthumb -14.1278 5.30304
lclavicle -1.31198e-014 -2.14687e-014
lhumerus -36.5435 -17.7181 94.0271
lradius 115.791
lwrist 35.4649
lhand -38.141 12.4491
lfingers 7.12502
lthumb -11.1753 42.1315
rfemur -7.48334 -9.40645 15.223
rtibia 105.634
rfoot 30.2367 -11.708
rtoes 28.7934
lfemur -21.1089 -2.17932 -27.0331
ltibia 41.4845
lfoot -13.5468 -4.94555
ltoes -7.65581
110
root 0.453522 17.2499 25.1162 0.694406 3.15122 3.67896
lowerback 18.7167 -0.0287951 -5.1016
upperback 2.24446 -1.31727 -2.83044
thorax -8.01953 -0.514365 0.172023
lowerneck -4.56817 -0.617415 -2.41147
upperneck -8.71269 -0.519378 3.90646
head -1.94602 -0.255115 1.64952
rclavicle -1.66979e-014 -3.18055e-015
rhumerus -41.5207 12.3319 -90.5747
rradius 90.3586
rwrist 3.97547
rhand -41.2429 34.7256
rfingers 7.12502
rthumb -14.1657 5.22856
lclavicle -1.66979e-014 -3.18055e-015
lhumerus -33.285 -18.9358 93.0649
lradius 115.653
lwrist 35.357
lhand -37.7061 11.16
lfingers 7.12502
lthumb -10.7557 40.8646
rfemur -10.6819 -9.77523 12.291
rtibia 108.769
rfoot 29.7989 -10.7414
rtoes 30.0699
lfemur -19.0093 -2.63399 -29.1185
ltibia 41.6156
lfoot -15.2248 -3.65819
ltoes -10.6695
